<svg width="270" height="56" viewBox="0 0 270 56" fill="none" xmlns="http://www.w3.org/2000/svg">
<g clip-path="url(#clip0_612_2177)">
<path d="M25.5789 55.6113C21.3579 55.6113 17.9379 52.1913 17.9379 47.9703V35.5181H7.641C3.42001 35.5181 0 32.0981 0 27.8771C0 23.6561 3.42001 20.2361 7.641 20.2361H25.5789C29.7999 20.2361 33.2199 23.6561 33.2199 27.8771V47.9703C33.2199 52.1913 29.7999 55.6113 25.5789 55.6113Z" fill="#C9C8C8"/>
<path d="M43.522 35.5233H25.5841C21.3631 35.5233 17.9431 32.1033 17.9431 27.8823V7.78907C17.9431 3.56808 21.3631 0.148071 25.5841 0.148071C29.8051 0.148071 33.2251 3.56808 33.2251 7.78907V20.2413H43.522C47.743 20.2413 51.163 23.6613 51.163 27.8823C51.163 32.1033 47.743 35.5233 43.522 35.5233Z" fill="white"/>
<path d="M33.22 27.8822V35.5232H25.579C21.358 35.5232 17.938 32.1032 17.938 27.8822V20.2412H25.579C29.8 20.2412 33.22 23.6665 33.22 27.8822Z" fill="#63B96C"/>
<path d="M33.22 27.8822V35.5232H25.579C21.358 35.5232 17.938 32.1032 17.938 27.8822V20.2412H25.579C29.8 20.2412 33.22 23.6665 33.22 27.8822Z" fill="#63B96C"/>
<path d="M75.4983 41.8313V14.2815H81.6269V41.8365H75.4983V41.8313ZM80.183 31.8031V27.0393H86.1166C86.8702 27.0393 87.5605 26.8813 88.1876 26.5704C88.8147 26.2594 89.3048 25.801 89.6684 25.2055C90.032 24.61 90.2164 23.8776 90.2164 23.0186C90.2164 22.1597 90.032 21.4693 89.6684 20.8739C89.3048 20.2731 88.8094 19.8199 88.1876 19.509C87.5605 19.1981 86.8755 19.04 86.1166 19.04H80.183V14.2762H87.0125C88.7567 14.2762 90.3324 14.6293 91.7341 15.3302C93.1411 16.031 94.253 17.0428 95.0698 18.355C95.8919 19.6671 96.2976 21.2217 96.2976 23.0186C96.2976 24.8156 95.8866 26.3701 95.0698 27.6822C94.2477 28.9944 93.1358 30.0114 91.7341 30.7281C90.3271 31.4448 88.7567 31.8031 87.0125 31.8031H80.183Z" fill="white"/>
<path d="M99.4646 41.8311V13.5015H105.435V41.8364H99.4646V41.8311ZM111.991 41.8311V31.0178C111.991 30.0271 111.685 29.2314 111.074 28.6201C110.462 28.0088 109.688 27.7032 108.75 27.7032C108.102 27.7032 107.527 27.8402 107.032 28.1142C106.536 28.3882 106.147 28.7782 105.862 29.2841C105.577 29.79 105.435 30.3696 105.435 31.0231L103.132 29.8901C103.132 28.4093 103.443 27.1077 104.07 25.9853C104.697 24.8681 105.567 24.0039 106.684 23.3926C107.801 22.7813 109.092 22.4757 110.547 22.4757C112.001 22.4757 113.329 22.7813 114.451 23.3926C115.569 24.0039 116.433 24.8523 117.044 25.9273C117.655 27.0076 117.961 28.2618 117.961 29.6951V41.8311H111.991Z" fill="white"/>
<path d="M129.712 42.2264C127.968 42.2264 126.414 41.7995 125.049 40.9406C123.684 40.0816 122.604 38.9118 121.808 37.4257C121.012 35.9449 120.617 34.2534 120.617 32.351C120.617 30.4487 121.012 28.7624 121.808 27.2764C122.604 25.7956 123.684 24.6205 125.049 23.7615C126.414 22.9026 127.968 22.4757 129.712 22.4757C130.988 22.4757 132.136 22.7234 133.164 23.2187C134.192 23.7141 135.029 24.3991 135.683 25.2686C136.331 26.1381 136.7 27.1341 136.774 28.2565V36.4508C136.695 37.568 136.336 38.564 135.699 39.4387C135.061 40.3135 134.223 40.9933 133.18 41.4886C132.136 41.984 130.982 42.2316 129.707 42.2316L129.712 42.2264ZM130.924 36.8408C132.2 36.8408 133.227 36.4192 134.007 35.5708C134.787 34.7224 135.177 33.6526 135.177 32.351C135.177 31.4657 135.003 30.6858 134.65 30.0113C134.297 29.3368 133.802 28.8098 133.169 28.4304C132.532 28.0563 131.794 27.8666 130.967 27.8666C130.139 27.8666 129.396 28.0563 128.764 28.4304C128.126 28.8098 127.62 29.3368 127.241 30.0113C126.861 30.6911 126.677 31.471 126.677 32.351C126.677 33.2311 126.856 33.9794 127.225 34.6539C127.589 35.3337 128.095 35.8659 128.748 36.2559C129.396 36.6458 130.129 36.8408 130.935 36.8408H130.924ZM134.945 41.8364V36.7249L135.841 32.1192L134.945 27.5135V22.8709H140.8V41.8364H134.945Z" fill="white"/>
<path d="M145.01 41.8312V22.8657H150.981V41.8312H145.01ZM150.981 31.413L148.483 29.4633C148.978 27.25 149.811 25.5321 150.981 24.3095C152.151 23.087 153.779 22.4757 155.861 22.4757C156.772 22.4757 157.573 22.6127 158.258 22.8867C158.949 23.1608 159.555 23.5823 160.071 24.1567L156.519 28.6465C156.261 28.3619 155.934 28.1406 155.544 27.9825C155.154 27.8244 154.712 27.7506 154.216 27.7506C153.226 27.7506 152.441 28.0563 151.856 28.6676C151.271 29.2788 150.976 30.1958 150.976 31.4183L150.981 31.413Z" fill="white"/>
<path d="M161.515 41.8312V22.8657H167.485V41.8312H161.515ZM173.651 41.8312V30.7491C173.651 29.7847 173.356 29.0364 172.771 28.5042C172.186 27.972 171.464 27.7032 170.605 27.7032C170.004 27.7032 169.472 27.8244 169.003 28.0721C168.534 28.3198 168.165 28.6623 167.891 29.105C167.617 29.5476 167.48 30.0956 167.48 30.7438L165.177 29.732C165.177 28.2249 165.504 26.9286 166.152 25.8483C166.8 24.768 167.686 23.9354 168.808 23.3505C169.925 22.7656 171.19 22.4705 172.592 22.4705C173.92 22.4705 175.11 22.7708 176.164 23.3663C177.218 23.967 178.056 24.7996 178.683 25.8641C179.305 26.9339 179.621 28.2038 179.621 29.6899V41.8259H173.651V41.8312ZM185.787 41.8312V30.7491C185.787 29.7847 185.492 29.0364 184.907 28.5042C184.322 27.972 183.6 27.7032 182.741 27.7032C182.14 27.7032 181.608 27.8244 181.139 28.0721C180.67 28.3198 180.301 28.6623 180.027 29.105C179.753 29.5476 179.616 30.0956 179.616 30.7438L176.18 30.2748C176.233 28.6623 176.618 27.2764 177.329 26.1171C178.046 24.9577 178.994 24.0619 180.18 23.4243C181.366 22.7866 182.699 22.4705 184.18 22.4705C185.66 22.4705 186.93 22.7761 188.063 23.3874C189.196 23.9987 190.092 24.8682 190.756 26.0011C191.42 27.1341 191.752 28.4937 191.752 30.0798V41.8259H185.782L185.787 41.8312Z" fill="white"/>
<path d="M203.509 42.2264C201.765 42.2264 200.21 41.7995 198.845 40.9406C197.48 40.0816 196.4 38.9118 195.604 37.4257C194.809 35.9449 194.413 34.2534 194.413 32.351C194.413 30.4487 194.809 28.7624 195.604 27.2764C196.4 25.7956 197.48 24.6205 198.845 23.7615C200.21 22.9026 201.765 22.4757 203.509 22.4757C204.784 22.4757 205.933 22.7234 206.96 23.2187C207.988 23.7141 208.826 24.3991 209.479 25.2686C210.127 26.1381 210.496 27.1341 210.57 28.2565V36.4508C210.491 37.568 210.133 38.564 209.495 39.4387C208.857 40.3135 208.02 40.9933 206.976 41.4886C205.933 41.984 204.779 42.2316 203.503 42.2316L203.509 42.2264ZM204.721 36.8408C205.996 36.8408 207.024 36.4192 207.804 35.5708C208.583 34.7224 208.973 33.6526 208.973 32.351C208.973 31.4657 208.799 30.6858 208.446 30.0113C208.093 29.3368 207.598 28.8098 206.966 28.4304C206.328 28.0563 205.59 27.8666 204.763 27.8666C203.936 27.8666 203.193 28.0563 202.56 28.4304C201.923 28.8098 201.417 29.3368 201.037 30.0113C200.658 30.6911 200.473 31.471 200.473 32.351C200.473 33.2311 200.653 33.9794 201.021 34.6539C201.385 35.3337 201.891 35.8659 202.544 36.2559C203.193 36.6458 203.925 36.8408 204.731 36.8408H204.721ZM208.742 41.8364V36.7249L209.637 32.1192L208.742 27.5135V22.8709H214.596V41.8364H208.742Z" fill="white"/>
<path d="M219.354 41.8312V14.2815H225.483V41.8365H219.354V41.8312Z" fill="white"/>
<path d="M230.247 41.8312V22.8657H236.217V41.8312H230.247ZM242.773 41.8312V31.0178C242.773 30.0271 242.467 29.2314 241.856 28.6201C241.245 28.0088 240.47 27.7032 239.532 27.7032C238.884 27.7032 238.31 27.8402 237.814 28.1142C237.319 28.3883 236.929 28.7782 236.644 29.2841C236.36 29.79 236.217 30.3697 236.217 31.0231L233.915 29.8901C233.915 28.4093 234.241 27.1077 234.89 25.9853C235.538 24.8681 236.444 24.0039 237.603 23.3926C238.763 22.7813 240.07 22.4757 241.524 22.4757C242.978 22.4757 244.169 22.8077 245.25 23.4717C246.33 24.1356 247.184 25.0157 247.805 26.1065C248.433 27.1973 248.743 28.3988 248.743 29.6951V41.8312H242.773Z" fill="white"/>
<path d="M261.738 42.2633C259.789 42.2633 258.018 41.8364 256.432 40.9775C254.846 40.1185 253.597 38.9329 252.685 37.4257C251.774 35.9186 251.32 34.2271 251.32 32.3511C251.32 30.4751 251.784 28.7519 252.706 27.2553C253.628 25.7587 254.883 24.5836 256.474 23.7246C258.06 22.8657 259.841 22.4388 261.823 22.4388C263.304 22.4388 264.663 22.6918 265.901 23.1977C267.135 23.7036 268.236 24.4677 269.2 25.4794L265.374 29.3052C264.932 28.8099 264.421 28.4462 263.83 28.2144C263.246 27.9825 262.576 27.8613 261.823 27.8613C260.964 27.8613 260.205 28.051 259.541 28.4252C258.877 28.8046 258.355 29.321 257.981 29.985C257.602 30.649 257.417 31.4236 257.417 32.3089C257.417 33.1942 257.607 33.9741 257.981 34.6486C258.361 35.3284 258.882 35.8607 259.562 36.2506C260.237 36.6406 260.99 36.8355 261.823 36.8355C262.603 36.8355 263.298 36.6985 263.91 36.4245C264.521 36.1505 265.048 35.7658 265.49 35.2757L269.274 39.1015C268.283 40.1449 267.166 40.9301 265.917 41.4623C264.668 41.9945 263.277 42.2633 261.744 42.2633H261.738Z" fill="white"/>
</g>
<defs>
<clipPath id="clip0_612_2177">
<rect width="269.274" height="55.4631" fill="white" transform="translate(0 0.148071)"/>
</clipPath>
</defs>
</svg>
